<svg xmlns="https://www.w3.org/2000/svg" xmlns:xlink="http://www.w3.org/1999/xlink" width="1010" height="1024" viewBox="0 0 1010 1024">
    <defs>
        <path id="a" d="M0 .5h1010v1024H0z"/>
        <linearGradient id="c" x1="3.996%" x2="94.698%" y1="91.51%" y2="9.252%">
            <stop offset="0%" stop-color="#110737"/>
            <stop offset="70%" stop-color="#2396FC"/>
        </linearGradient>
        <linearGradient id="d" x1="5.898%" x2="94.101%" y1="10.579%" y2="89.476%">
            <stop offset="0%" stop-color="#110737"/>
            <stop offset="70%" stop-color="#2396FC"/>
        </linearGradient>
        <linearGradient id="e" x1="23.665%" x2="133.177%" y1="73.433%" y2="-23.561%">
            <stop offset="0%" stop-color="#110737"/>
            <stop offset="70%" stop-color="#2396FC"/>
        </linearGradient>
        <linearGradient id="f" x1="-1657.574%" x2="-1657.118%" y1="1140.908%" y2="1258.37%">
            <stop offset="0%" stop-color="#110737"/>
            <stop offset="70%" stop-color="#2396FC"/>
        </linearGradient>
        <linearGradient id="g" x1="1.486%" x2="98.081%" y1="6.622%" y2="93.026%">
            <stop offset="0%" stop-color="#110737"/>
            <stop offset="70%" stop-color="#2396FC"/>
        </linearGradient>
        <linearGradient id="h" x1="62.894%" x2="33.318%" y1="39.787%" y2="63.353%">
            <stop offset="0%" stop-color="#2CDBEC"/>
            <stop offset="100%" stop-color="#110737"/>
        </linearGradient>
        <linearGradient id="i" x1="138.746%" x2="46.146%" y1="21.331%" y2="104.161%">
            <stop offset="0%" stop-color="#110737"/>
            <stop offset="70%" stop-color="#2396FC"/>
        </linearGradient>
        <linearGradient id="j" x1="3.587%" x2="96.217%" y1="8.285%" y2="91.145%">
            <stop offset="0%" stop-color="#110737"/>
            <stop offset="70%" stop-color="#2396FC"/>
        </linearGradient>
        <linearGradient id="k" x1="4.867%" x2="95.745%" y1="9.279%" y2="90.579%">
            <stop offset="0%" stop-color="#110737"/>
            <stop offset="70%" stop-color="#2396FC"/>
        </linearGradient>
        <linearGradient id="l" x1="82.417%" x2="21.573%" y1="17.858%" y2="78.171%">
            <stop offset="0%" stop-color="#110737"/>
            <stop offset="70%" stop-color="#2CDBEC"/>
        </linearGradient>
        <linearGradient id="m" x1="82.692%" x2="-22.208%" y1="20.694%" y2="115.207%">
            <stop offset="0%" stop-color="#110737"/>
            <stop offset="70%" stop-color="#2396FC"/>
        </linearGradient>
        <linearGradient id="n" x1="83.847%" x2="12.409%" y1="77.365%" y2="19.571%">
            <stop offset="0%" stop-color="#110737"/>
            <stop offset="70%" stop-color="#2396FC"/>
        </linearGradient>
        <linearGradient id="o" x1="8.738%" x2="116.802%" y1="86.672%" y2="-9.03%">
            <stop offset="0%" stop-color="#110737"/>
            <stop offset="70%" stop-color="#2396FC"/>
        </linearGradient>
        <linearGradient id="p" x1="97.343%" x2="2.288%" y1="92.453%" y2="7.425%">
            <stop offset="0%" stop-color="#110737"/>
            <stop offset="70%" stop-color="#2396FC"/>
        </linearGradient>
        <linearGradient id="q" x1="22.808%" x2="113.617%" y1="35.081%" y2="116.875%">
            <stop offset="0%" stop-color="#110737"/>
            <stop offset="70%" stop-color="#2396FC"/>
        </linearGradient>
        <linearGradient id="r" x1="78.782%" x2="171.624%" y1="127.596%" y2="44.55%">
            <stop offset="0%" stop-color="#110737"/>
            <stop offset="70%" stop-color="#2CDBEC"/>
        </linearGradient>
        <linearGradient id="s" x1="93.229%" x2="-19.624%" y1="11.714%" y2="111.656%">
            <stop offset="0%" stop-color="#110737"/>
            <stop offset="70%" stop-color="#2CDBEC"/>
        </linearGradient>
        <radialGradient id="t" cx="48.97%" cy="19.335%" r="89.946%" fx="48.97%" fy="19.335%" gradientTransform="matrix(.94846 0 0 1 .025 0)">
            <stop offset="0%" stop-color="#2CDBEC"/>
            <stop offset="100%" stop-color="#110737"/>
        </radialGradient>
        <radialGradient id="u" cx="62.482%" cy="-12.47%" r="123.037%" fx="62.482%" fy="-12.47%" gradientTransform="matrix(.95161 0 0 1 .03 0)">
            <stop offset="0%" stop-color="#2CDBEC"/>
            <stop offset="100%" stop-color="#110737"/>
        </radialGradient>
        <radialGradient id="v" cx="67.631%" cy="29.184%" r="80.969%" fx="67.631%" fy="29.184%" gradientTransform="matrix(.89505 .37074 -.35729 .92874 .175 -.23)">
            <stop offset="18%" stop-color="#2396FC"/>
            <stop offset="100%" stop-color="#110737"/>
        </radialGradient>
        <radialGradient id="w" cx="55.937%" cy="21.97%" r="84.149%" fx="55.937%" fy="21.97%" gradientTransform="matrix(.94917 0 0 1 .028 0)">
            <stop offset="0%" stop-color="#2396FC"/>
            <stop offset="100%" stop-color="#110737"/>
        </radialGradient>
        <radialGradient id="x" cx="69.963%" cy="28.58%" r="95.036%" fx="69.963%" fy="28.58%" gradientTransform="scale(.95432 1) rotate(12.693 .716 .436)">
            <stop offset="2%" stop-color="#2396FC"/>
            <stop offset="87%" stop-color="#110737"/>
        </radialGradient>
    </defs>
    <g fill="none" fill-rule="evenodd" transform="translate(0 -.5)">
        <mask id="b" fill="#fff">
            <use xlink:href="#a"/>
        </mask>
        <use fill="#110737" xlink:href="#a"/>
        <g mask="url(#b)" opacity=".525">
            <g fill-rule="nonzero" transform="translate(-1322 -1389.555)">
                <path fill="url(#c)" d="M915.277 820.318c-29.455 26.314-75.611 25.651-104.215-1.496-28.604-27.146-29.302-70.951-1.576-98.906l371.908-352.964c18.696-18.851 46.718-26.555 73.136-20.107 26.418 6.448 47.048 26.026 53.842 51.099 6.794 25.072-1.324 51.667-21.187 69.41L915.277 820.318z"/>
                <path fill="url(#d)" d="M262.76 697.146c-67.96-65.937-67.346-171.501 1.376-236.722 68.722-65.222 179.952-65.805 249.428-1.307l483.759 459.117c67.96 65.938 67.346 171.501-1.376 236.723-68.723 65.221-179.952 65.804-249.429 1.306L262.76 697.146z"/>
                <path fill="url(#e)" d="M2068.75 1999.273c-53.408 50.751-140.054 50.804-193.529.117-53.475-50.687-53.53-132.92-.123-183.67l806.866-765.688c53.622-49.449 139.148-48.857 192.005 1.329 52.856 50.185 53.444 131.355 1.318 182.225l-806.538 765.687z"/>
                <path fill="url(#f)" d="M1240.021 1624.628c-67.959-65.937-67.345-171.501 1.377-236.723 68.722-65.221 179.952-65.804 249.428-1.306l925.267 878.135c65.878 66.314 64.176 170.345-3.84 234.685-68.016 64.341-177.635 65.617-247.292 2.878l-924.94-877.669z" opacity=".8"/>
                <path fill="url(#g)" d="M1239.284 912.639c-19.862-17.744-27.98-44.339-21.186-69.41 6.794-25.073 27.424-44.652 53.842-51.1s54.44 1.256 73.136 20.107L2615.885 2018.39c28.372 27.834 27.986 72.117-.868 99.501s-75.514 27.75-104.842.824L1239.285 912.64z" opacity=".6"/>
                <path fill="url(#h)" d="M1760.463 1525.08c-30.767 28.996-79.245 32.299-114.061 7.771l-.655.7 738.248 700.643.655-.7c-26.692-33.105-23.431-79.851 7.627-109.328 31.058-29.476 80.314-32.571 115.196-7.238l.655-.7-738.248-700.643-.655.7c26.028 33.277 22.293 79.658-8.762 108.795z"/>
                <path fill="url(#i)" d="M1545.278 2100.997c31.288-28.538 43.883-70.895 32.93-110.746-10.954-39.851-43.746-70.973-85.736-81.368-41.99-10.396-86.621 1.557-116.69 31.252l-666.029 632.102c-31.288 28.538-43.883 70.895-32.93 110.746 10.954 39.851 43.746 70.973 85.736 81.368 41.99 10.396 86.62-1.557 116.69-31.252l666.029-632.102z"/>
                <path fill="url(#j)" d="M1423.683 726.055c-29.191-27.726-29.173-72.66.04-100.364 29.214-27.704 76.56-27.687 105.751.039l445.602 422.903c27.726 27.956 27.028 71.76-1.576 98.907-28.604 27.147-74.76 27.81-104.215 1.496l-445.602-422.981z"/>
                <path fill="url(#k)" d="M98.258 1955.056c-19.862-17.744-27.98-44.339-21.186-69.411 6.794-25.073 27.424-44.651 53.842-51.1 26.418-6.447 54.44 1.257 73.136 20.108l344.969 327.474c27.726 27.956 27.028 71.76-1.576 98.907-28.604 27.147-74.76 27.81-104.216 1.496L98.258 1955.056z"/>
                <path fill="url(#l)" d="M494.24 2051.573c10.996-10.445 25.916-16.314 41.473-16.314 15.558 0 30.477 5.869 41.473 16.314L489 1967.8l-93.754-88.979-88.106-83.695c14.817 14.062 20.604 34.558 15.18 53.768-5.423 19.21-21.232 34.213-41.473 39.36-20.24 5.148-41.836-.344-56.653-14.407l88.187 83.695 93.673 88.98 88.187 83.694c-22.774-21.759-22.774-56.884 0-78.643z"/>
                <path fill="url(#m)" d="M2175.032 1345.8c-28.43 28.598-70.997 40.261-111.114 30.447-40.116-9.815-71.436-39.555-81.757-77.633-10.32-38.078 1.99-78.47 32.137-105.438l461.814-438.368c28.218-29.472 71.241-41.805 111.931-32.087 40.69 9.719 72.438 39.91 82.595 78.548 10.157 38.637-2.926 79.443-34.037 106.163l-461.569 438.369z"/>
                <path fill="url(#n)" d="M2311.038 1309.51c26.152 24.762 27.09 64.687 2.13 90.533l2.374-2.02 280.691-266.394c.737-.7 1.392-1.477 2.13-2.254-27.249 23.654-69.286 22.765-95.398-2.016-26.111-24.782-27.047-64.678-2.124-90.538l-2.375 2.02-280.691 266.705c-.737.7-1.392 1.477-2.13 2.254 27.147-23.775 69.212-23.02 95.393 1.71z"/>
                <path fill="url(#o)" d="M1459.301 1097.28c-48.695 45.83-127.267 45.675-175.76-.348-48.493-46.023-48.658-120.593-.368-166.808l581.363-551.749c48.932-44.613 126.48-43.875 174.46 1.661 47.98 45.536 48.758 119.133 1.75 165.574L1459.3 1097.28z" opacity=".85"/>
                <path fill="url(#p)" d="M2068.176 2566.253c31.289 28.538 43.883 70.896 32.93 110.747-10.954 39.85-43.745 70.972-85.735 81.368-41.99 10.395-86.621-1.558-116.69-31.253L807.765 1691.693c-45.232-44.669-44.49-115.473 1.667-159.28 46.158-43.807 120.763-44.51 167.829-1.582l1090.914 1035.422z" opacity=".7"/>
                <path fill="url(#q)" d="M726.294 2193.007c39.836 39.387 98.998 55.256 154.665 41.486 55.667-13.771 99.14-55.029 113.65-107.86 14.509-52.832-2.212-108.98-43.713-146.788L295.84 1358.157c-62.334-56.87-161.146-55.98-222.331 2.003-61.185 57.984-62.267 151.761-2.435 211.003l655.22 621.844z"/>
                <path fill="url(#r)" d="M1065.858 2556.073c-45.231 44.668-44.49 115.473 1.668 159.28 46.157 43.806 120.762 44.51 167.828 1.582l653.746-620.523c31.289-28.538 43.884-70.895 32.93-110.746s-43.745-70.973-85.735-81.368c-41.99-10.396-86.621 1.557-116.69 31.252l-653.747 620.523z" opacity=".8"/>
                <path fill="url(#s)" d="M1874.361 34.66c31.507-29.86 77.404-41.5 120.405-30.534 43 10.965 76.57 42.87 88.064 83.694 11.494 40.826-.834 84.37-32.34 114.229L702.22 1481.484c-48.932 44.614-126.48 43.875-174.46-1.66-47.98-45.536-48.758-119.134-1.75-165.574L1874.361 34.66z" opacity=".85"/>
                <path fill="url(#t)" d="M2182.32 874.25l.573-.467c50.06-47.51 50.06-124.54 0-172.052-50.061-47.51-131.226-47.51-181.287 0l-.573.544-.573.466c-48.778 47.69-48.183 123.71 1.336 170.707s129.62 47.561 179.869 1.268c.251-.108.475-.267.655-.466z"/>
                <path fill="url(#u)" d="M730.633 2450.075c32.5-32.772 31.769-84.096-1.65-116.023-33.42-31.926-87.493-32.958-122.237-2.33v.388c-33.051 32.796-32.434 84.645 1.389 116.724 33.823 32.079 88.455 32.63 122.99 1.241h-.492z"/>
                <ellipse cx="283.495" cy="1104.297" fill="url(#v)" rx="210.203" ry="202.577" transform="rotate(-22.5 283.495 1104.297)"/>
                <path fill="url(#w)" d="M1302.334 1226.903c-58.041-55.076-152.135-55.071-210.17.01-58.034 55.081-58.034 144.382 0 199.464 58.035 55.08 152.129 55.085 210.17.01 58.004-55.101 58.004-144.383 0-199.484z"/>
                <ellipse cx="1557.625" cy="2695.518" fill="url(#x)" rx="148.226" ry="141.455" transform="rotate(-13.28 1557.625 2695.518)"/>
            </g>
        </g>
    </g>
</svg>
